:version 1.10
:name ASF
:units
  mass 1
  length 1
  angle deg
:documentation
  ASF file generated by Kaydara
:root
  axis xyz
  order  tx ty tz rx ry rz
  position 0 0 0
  orientation 0 0 0
:bonedata
  begin
    id 1
    name RightUpLegDummy
    direction -0.65628 -0.754516 0.00165102
    length 4.76918
    axis 0 0 0 xyz
  end
  begin
    id 2
    name RightUpLeg
    direction -0.145584 -0.923362 0.355256
    length 17.9961
    axis -24.7611 -13.1006 1.78531 xyz
    dof rx ry rz
  end
  begin
    id 3
    name RightLeg
    direction 0.263379 0.172355 -0.949171
    length 13.3386
    axis 89.6202 -21.1929 12.3855 xyz
    dof rx ry rz
  end
  begin
    id 4
    name RightFoot
    direction 0.224283 -0.968777 -0.105675
    length 5.86697
    axis 56.995 -39.6905 17.3365 xyz
    dof rx ry rz
  end
  begin
    id 5
    name RightToes
    direction -0.0806345 -0.9037 0.420506
    length 4.75197
    axis 146.825 -39.7828 17.6019 xyz
    dof rx ry rz
  end
  begin
    id 6
    name SpineDummy
    direction -3.39852e-014 1 9.33296e-014
    length 8.13779
    axis 0 0 0 xyz
  end
  begin
    id 7
    name Spine
    direction -0.156609 0.733703 0.661176
    length 7.14978
    axis 41.2365 5.68757 17.0844 xyz
    dof rx ry rz
  end
  begin
    id 8
    name Spine1
    direction 0 0 0
    length 0
    axis 42.8809 47.8308 -3.36039 xyz
    dof rx ry rz
  end
  begin
    id 9
    name HEadDummy
    direction 0.546431 0.701947 0.456819
    length 3.55512
    axis 42.8809 47.8308 -3.36039 xyz
  end
  begin
    id 10
    name HEad
    direction 0.23444 0.828559 0.508457
    length 7.35827
    axis 51.1864 49.2662 27.4903 xyz
    dof rx ry rz
  end
  begin
    id 11
    name LeftShoulder1Dummy
    direction 0.431183 0.475873 -0.766568
    length 2.49352
    axis 42.8809 47.8308 -3.36039 xyz
  end
  begin
    id 12
    name LeftShoulder1
    direction 0.268187 -0.383402 -0.883786
    length 4.48604
    axis -119.517 0.106469 35.1736 xyz
    dof rx ry rz
  end
  begin
    id 13
    name LeftArm
    direction 0.380567 -0.703221 -0.600541
    length 10.1142
    axis -5.41825 36.2925 7.8293 xyz
    dof rx ry rz
  end
  begin
    id 14
    name LeftForeArm
    direction 0.541071 -0.732356 -0.413396
    length 9.39839
    axis 4.65387 33.7604 7.81644 xyz
    dof rx ry rz
  end
  begin
    id 15
    name LeftHand
    direction 0.847511 -0.389379 -0.360707
    length 3.66142
    axis 7.65593 21.1436 -24.6758 xyz
    dof rx ry rz
  end
  begin
    id 16
    name RightShoulderDummy
    direction -0.692546 0.541855 0.476208
    length 2.49352
    axis 42.8809 47.8308 -3.36039 xyz
  end
  begin
    id 17
    name RightShoulder
    direction -0.870808 -0.316653 0.376065
    length 4.48602
    axis 141.571 51.133 -100.254 xyz
    dof rx ry rz
  end
  begin
    id 18
    name RightArm
    direction 0.366897 -0.87275 0.322015
    length 10.1142
    axis 92.3258 71.2036 138.917 xyz
    dof rx ry rz
  end
  begin
    id 19
    name RightForeArm
    direction 0.702487 -0.694568 0.155197
    length 9.39835
    axis 153.863 41.5092 -176.604 xyz
    dof rx ry rz
  end
  begin
    id 20
    name RightHand
    direction 0.79502 -0.601276 0.0800636
    length 3.66142
    axis 154.247 4.59222 142.9 xyz
    dof rx ry rz
  end
  begin
    id 21
    name LeftUpLegDummy
    direction 0.65628 -0.754516 0.00165102
    length 4.76919
    axis 0 0 0 xyz
  end
  begin
    id 22
    name LeftUpLeg
    direction -0.1277 -0.689368 0.713067
    length 17.9961
    axis -48.3385 -17.8675 0.791927 xyz
    dof rx ry rz
  end
  begin
    id 23
    name LeftLeg
    direction 0.109849 -0.991246 -0.0732378
    length 13.3386
    axis -2.05791 -7.30784 1.72042 xyz
    dof rx ry rz
  end
  begin
    id 24
    name LeftFoot
    direction 0.0448355 -0.272614 0.961078
    length 5.86697
    axis -18.7733 -7.89606 10.2113 xyz
    dof rx ry rz
  end
  begin
    id 25
    name LeftToes
    direction -0.18506 0.293668 0.937823
    length 4.75197
    axis 71.2267 -7.89606 10.2113 xyz
    dof rx ry rz
  end
:hierarchy
  begin
    root RightUpLegDummy SpineDummy LeftUpLegDummy
    RightUpLegDummy RightUpLeg
    RightUpLeg RightLeg
    RightLeg RightFoot
    RightFoot RightToes
    SpineDummy Spine
    Spine Spine1
    Spine1 HEadDummy LeftShoulder1Dummy RightShoulderDummy
    HEadDummy HEad
    LeftShoulder1Dummy LeftShoulder1
    LeftShoulder1 LeftArm
    LeftArm LeftForeArm
    LeftForeArm LeftHand
    RightShoulderDummy RightShoulder
    RightShoulder RightArm
    RightArm RightForeArm
    RightForeArm RightHand
    LeftUpLegDummy LeftUpLeg
    LeftUpLeg LeftLeg
    LeftLeg LeftFoot
    LeftFoot LeftToes
  end

:SAMPLES-PER-SECOND 30
:FULLY-SPECIFIED
:DEGREES
318
root  -0.935929 38.7254 -65.0062 0.803761 27.9864 2.60337
RightUpLeg  19.283 10.4098 13.727
RightLeg  -94.8659 -11.3726 -2.88694
RightFoot  12.6018 3.58321 -12.2448
RightToes  -1.27222e-014 -6.36111e-015 6.36111e-015
Spine  -35.7899 -8.3488 -5.69057
Spine1  3.95452 -8.58544 39.8931
HEad  1.65921 -28.5151 -21.0777
LeftShoulder1  6.36111e-015 -1.33558e-015 6.49777e-015
LeftArm  47.6249 13.4359 -36.4868
LeftForeArm  1.79708 -24.4891 -2.85822
LeftHand  -2.08228 -2.99615 -17.459
RightShoulder  -4.77083e-015 -6.36111e-015 -3.18055e-015
RightArm  23.6327 -16.9457 13.7676
RightForeArm  -25.0656 11.2994 -23.3483
RightHand  -0.0917103 2.96416 -4.05192
LeftUpLeg  22.5866 12.458 10.2324
LeftLeg  -5.92442 -0.42473 -1.00097
LeftFoot  9.15246 3.54696 -9.25115
LeftToes  9.54166e-015 4.2066e-011 -8.07781e-011
319
root  -0.531348 38.7059 -64.237 0.322691 26.3456 1.60984
RightUpLeg  22.2365 9.92922 14.3094
RightLeg  -97.2856 -11.0879 -4.90481
RightFoot  12.5979 3.95551 -12.9058
RightToes  -1.27222e-014 -6.36111e-015 6.36111e-015
Spine  -36.0089 -5.70369 -3.80139
Spine1  4.08684 -7.65412 35.5865
HEad  2.5205 -29.4164 -21.7983
LeftShoulder1  6.36111e-015 -1.33558e-015 6.49777e-015
LeftArm  48.3092 13.1221 -33.4262
LeftForeArm  -1.77365 -24.1144 -0.877606
LeftHand  -1.85954 -2.34103 -16.1222
RightShoulder  -4.77083e-015 -6.36111e-015 -3.18055e-015
RightArm  24.0038 -15.7224 13.3508
RightForeArm  -22.7648 8.2257 -20.0849
RightHand  -0.249648 3.60332 -3.81846
LeftUpLeg  22.6139 13.5116 13.0774
LeftLeg  -16.4409 -8.47725 -1.0436
LeftFoot  10.3536 4.54547 -11.4844
LeftToes  9.54166e-015 4.2066e-011 -8.07781e-011
320
root  -0.137457 38.4548 -63.5204 -1.91051 25.0033 -0.676702
RightUpLeg  26.0573 9.78991 17.8053
RightLeg  -98.6837 -11.4474 -3.13996
RightFoot  11.7665 6.16076 -16.72
RightToes  -1.27222e-014 -6.36111e-015 6.36111e-015
Spine  -34.6381 -2.62866 -0.789155
Spine1  4.44314 -6.83587 31.888
HEad  2.5465 -30.4204 -22.3133
LeftShoulder1  6.36111e-015 -1.33558e-015 6.49777e-015
LeftArm  46.5523 12.667 -30.1158
LeftForeArm  -3.79577 -27.0779 0.0544898
LeftHand  -1.47675 -1.25694 -14.2368
RightShoulder  -4.77083e-015 -6.36111e-015 -3.18055e-015
RightArm  24.8115 -14.788 11.9999
RightForeArm  -20.5307 4.63395 -16.8748
RightHand  -0.396567 4.21221 -3.6094
LeftUpLeg  23.9959 14.5727 17.4472
LeftLeg  -26.0433 -16.303 1.70903
LeftFoot  10.526 7.03727 -17.6122
LeftToes  9.54166e-015 4.2066e-011 -8.07781e-011
321
root  0.285925 38.0358 -62.7892 -5.01928 25.3942 -3.35892
RightUpLeg  29.7152 9.25443 21.9939
RightLeg  -98.603 -11.3903 1.34428
RightFoot  10.4927 8.0893 -20.1494
RightToes  -1.27222e-014 -6.36111e-015 6.36111e-015
Spine  -32.881 -0.503253 2.46231
Spine1  5.41304 -6.71222 29.8806
HEad  1.84344 -31.4265 -22.8265
LeftShoulder1  6.36111e-015 -1.33558e-015 6.49777e-015
LeftArm  42.8312 11.6845 -29.2684
LeftForeArm  -6.17603 -29.4028 1.12696
LeftHand  -0.879986 0.333783 -11.8907
RightShoulder  -4.77083e-015 -6.36111e-015 -3.18055e-015
RightArm  26.0923 -14.3918 10.3382
RightForeArm  -19.1675 -1.23251 -13.0985
RightHand  -0.215564 3.70563 -4.38883
LeftUpLeg  24.7316 13.344 19.6486
LeftLeg  -31.0576 -19.0764 3.24506
LeftFoot  11.4708 9.31278 -22.6584
LeftToes  9.54166e-015 4.2066e-011 -8.07781e-011
322
root  0.692212 37.5819 -61.9464 -7.11501 28.6682 -4.70099
RightUpLeg  31.9568 7.5916 23.5628
RightLeg  -97.7808 -11.1458 5.17476
RightFoot  8.86032 8.81225 -21.4137
RightToes  -1.27222e-014 -6.36111e-015 6.36111e-015
Spine  -32.2287 -1.37963 2.84301
Spine1  6.62269 -7.59459 31.153
HEad  1.06262 -32.6839 -23.3701
LeftShoulder1  6.36111e-015 -1.33558e-015 6.49777e-015
LeftArm  37.076 10.3284 -30.7863
LeftForeArm  -8.72911 -31.2792 2.27793
LeftHand  -0.207593 1.85945 -9.29841
RightShoulder  -4.77083e-015 -6.36111e-015 -3.18055e-015
RightArm  28.4901 -15.3028 8.4215
RightForeArm  -19.0754 -8.92857 -9.31402
RightHand  0.267273 2.29516 -6.02497
LeftUpLeg  22.7487 11.335 17.1945
LeftLeg  -28.0959 -19.074 3.24143
LeftFoot  13.8205 9.09287 -20.9474
LeftToes  9.54166e-015 4.2066e-011 -8.07781e-011
323
root  1.0606 37.1068 -60.9413 -7.34112 33.2293 -3.60289
RightUpLeg  32.3319 4.79666 21.5648
RightLeg  -94.9462 -12.1598 6.87643
RightFoot  5.50757 9.33089 -22.2708
RightToes  -1.27222e-014 -6.36111e-015 6.36111e-015
Spine  -31.5606 -4.94714 -0.926415
Spine1  7.23295 -8.5337 35.2211
HEad  0.222096 -35.0478 -22.9593
LeftShoulder1  6.36111e-015 -1.33558e-015 6.49777e-015
LeftArm  30.4761 8.03253 -34.2151
LeftForeArm  -11.9257 -34.9668 4.41928
LeftHand  0.161994 2.40389 -7.30291
RightShoulder  -4.77083e-015 -6.36111e-015 -3.18055e-015
RightArm  32.2618 -18.5649 5.50253
RightForeArm  -20.1492 -16.434 -6.26548
RightHand  0.734013 1.06063 -7.53646
LeftUpLeg  19.7539 7.58705 10.7195
LeftLeg  -20.166 -17.1182 1.1062
LeftFoot  14.9673 7.11781 -16.0422
LeftToes  9.54166e-015 4.2066e-011 -8.07781e-011
324
root  1.40484 36.6131 -59.8706 -5.7944 35.7069 -0.0778269
RightUpLeg  30.5854 3.52448 17.9122
RightLeg  -87.4061 -14.1823 8.34972
RightFoot  1.7792 9.8399 -23.2408
RightToes  -1.27222e-014 -6.36111e-015 6.36111e-015
Spine  -29.1223 -8.7457 -7.0169
Spine1  7.96887 -8.3276 38.1589
HEad  -1.84895 -38.5743 -20.3008
LeftShoulder1  6.36111e-015 -1.33558e-015 6.49777e-015
LeftArm  24.9667 3.37714 -38.8425
LeftForeArm  -17.3741 -40.9026 8.98877
LeftHand  0.058947 1.82741 -6.48697
RightShoulder  -4.77083e-015 -6.36111e-015 -3.18055e-015
RightArm  36.9217 -23.7507 2.0432
RightForeArm  -22.043 -22.7566 -3.88177
RightHand  1.00917 0.369533 -8.37435
LeftUpLeg  17.8122 7.18235 5.8826
LeftLeg  -12.7059 -16.6223 -0.134767
LeftFoot  12.4543 6.04859 -14.4825
LeftToes  9.54166e-015 4.2066e-011 -8.07781e-011
325
root  1.79046 36.1868 -58.8645 -3.71732 34.9247 3.94804
RightUpLeg  26.303 2.79891 12.8155
RightLeg  -74.2698 -16.5988 6.41526
RightFoot  3.04731 9.43187 -22.3632
RightToes  -1.27222e-014 -6.36111e-015 6.36111e-015
Spine  -26.2688 -10.9001 -12.1701
Spine1  9.9641 -7.30855 37.4912
HEad  -5.92647 -41.3628 -15.7753
LeftShoulder1  6.36111e-015 -1.33558e-015 6.49777e-015
LeftArm  21.2493 -3.8263 -43.3991
LeftForeArm  -26.4216 -46.8093 16.7842
LeftHand  -0.207667 1.00679 -6.47159
RightShoulder  -4.77083e-015 -6.36111e-015 -3.18055e-015
RightArm  40.9577 -29.6876 -1.69088
RightForeArm  -22.4943 -25.0895 -1.29144
RightHand  1.13386 0.0279593 -8.67381
LeftUpLeg  17.0843 9.81672 4.43954
LeftLeg  -7.46941 -16.6942 -0.920937
LeftFoot  7.78282 6.09107 -16.3654
LeftToes  9.54166e-015 4.2066e-011 -8.07781e-011
326
root  2.28158 35.868 -57.912 -2.15062 32.9202 6.64899
RightUpLeg  19.8508 2.22277 7.4745
RightLeg  -58.0064 -15.9529 0.776816
RightFoot  12.2892 7.42581 -19.1023
RightToes  -1.27222e-014 -6.36111e-015 6.36111e-015
Spine  -25.1368 -12.4946 -15.1244
Spine1  12.64 -6.97843 35.3775
HEad  -10.3834 -41.2528 -12.0359
LeftShoulder1  6.36111e-015 -1.33558e-015 6.49777e-015
LeftArm  18.2872 -12.0108 -46.8582
LeftForeArm  -37.4487 -50.4072 26.1321
LeftHand  -0.318146 0.73872 -6.72956
RightShoulder  -4.77083e-015 -6.36111e-015 -3.18055e-015
RightArm  44.3153 -33.7956 -1.64908
RightForeArm  -21.6078 -24.6366 0.271603
RightHand  1.18399 -0.139433 -8.73386
LeftUpLeg  16.9543 13.0035 4.75352
LeftLeg  -3.56398 -16.3725 -1.50663
LeftFoot  4.11469 5.75791 -17.0828
LeftToes  9.54166e-015 4.2066e-011 -8.07781e-011
327
root  2.8394 35.6714 -56.9617 -1.4898 31.5287 7.93905
RightUpLeg  13.3092 1.22323 2.27294
RightLeg  -44.6634 -12.0884 -3.85205
RightFoot  23.0999 4.0595 -15.2174
RightToes  -1.27222e-014 -6.36111e-015 6.36111e-015
Spine  -25.5777 -14.9911 -16.9092
Spine1  14.6629 -8.27048 34.8605
HEad  -12.7561 -38.0225 -11.0674
LeftShoulder1  6.36111e-015 -1.33558e-015 6.49777e-015
LeftArm  15.1619 -19.7654 -48.8245
LeftForeArm  -45.2752 -51.9261 33.0983
LeftHand  -0.290555 0.86062 -6.8632
RightShoulder  -4.77083e-015 -6.36111e-015 -3.18055e-015
RightArm  47.0646 -35.8918 2.76346
RightForeArm  -21.0451 -23.821 -0.0479315
RightHand  1.26036 -0.386491 -8.8377
LeftUpLeg  17.4352 14.6487 4.62228
LeftLeg  -0.274277 -15.3763 -1.91007
LeftFoot  1.8317 4.85912 -15.4193
LeftToes  9.54166e-015 4.2066e-011 -8.07781e-011
328
root  3.38622 35.782 -55.965 -2.37972 30.1667 8.0075
RightUpLeg  9.2369 -0.0596896 -1.91302
RightLeg  -37.259 -10.9641 -4.35061
RightFoot  27.0811 1.79692 -12.8339
RightToes  -1.27222e-014 -6.36111e-015 6.36111e-015
Spine  -26.2411 -17.7552 -18.1213
Spine1  15.0256 -10.417 36.4343
HEad  -12.0546 -32.7752 -12.233
LeftShoulder1  6.36111e-015 -1.33558e-015 6.49777e-015
LeftArm  12.5036 -26.5355 -49.4268
LeftForeArm  -46.3267 -53.0624 35.4401
LeftHand  -0.207025 1.07029 -6.69105
RightShoulder  -4.77083e-015 -6.36111e-015 -3.18055e-015
RightArm  49.5727 -38.0187 6.04328
RightForeArm  -20.926 -23.3132 -1.4158
RightHand  1.37186 -0.72742 -9.01947
LeftUpLeg  20.2695 14.9795 4.59843
LeftLeg  0.814641 -13.9581 -1.8868
LeftFoot  -0.143194 4.18814 -14.1225
LeftToes  9.54166e-015 4.2066e-011 -8.07781e-011
329
root  3.86302 36.2622 -54.9092 -4.1965 27.4131 7.28495
RightUpLeg  7.10502 -0.27292 -4.17091
RightLeg  -35.0504 -13.6185 -2.75615
RightFoot  24.9108 1.8517 -12.4345
RightToes  -1.27222e-014 -6.36111e-015 6.36111e-015
Spine  -26.5923 -19.9946 -19.1142
Spine1  13.6311 -12.3357 38.5848
HEad  -8.5039 -26.4086 -14.131
LeftShoulder1  6.36111e-015 -1.33558e-015 6.49777e-015
LeftArm  11.6122 -31.8375 -49.2215
LeftForeArm  -41.2891 -54.0716 33.0421
LeftHand  -0.0739904 1.40481 -6.4338
RightShoulder  -4.77083e-015 -6.36111e-015 -3.18055e-015
RightArm  52.3292 -41.0184 4.97323
RightForeArm  -20.8884 -22.7831 -2.91833
RightHand  1.3997 -0.765738 -9.14851
LeftUpLeg  25.5719 15.4019 6.1964
LeftLeg  -1.16388 -12.5933 -1.52019
LeftFoot  -1.39054 4.10782 -14.4101
LeftToes  9.54166e-015 4.2066e-011 -8.07781e-011
